<svg width="45" height="64" viewBox="0 0 45 64" fill="none" xmlns="http://www.w3.org/2000/svg">
<path d="M38.4 0H25.6V12.9888C30.1803 13.4922 34.5713 15.0939 38.4 17.6576V0ZM19.2 0H6.40002V17.6576C10.2288 15.0939 14.6198 13.4922 19.2 12.9888V0Z" fill="#0B3D91"/>
<path d="M22.4004 19.2C28.3411 19.2001 34.0385 21.5598 38.2393 25.7605C42.4401 29.9613 44.7998 35.6595 44.7998 41.6003C44.7997 47.541 42.44 53.2385 38.2393 57.4392C34.0385 61.6399 28.3411 63.9997 22.4004 63.9998C16.4595 63.9998 10.7614 61.64 6.56055 57.4392C2.35988 53.2385 0.000103046 47.541 0 41.6003C0 35.6595 2.35973 29.9613 6.56055 25.7605C10.7614 21.5597 16.4595 19.2 22.4004 19.2ZM18.4805 36.739L9.72168 38.0095L16.0605 44.1921L14.5635 52.9187L22.4004 48.7996L30.2402 52.9187L28.7422 44.1921L35.082 38.0095L26.3203 36.739L22.4004 28.7996L18.4805 36.739Z" fill="#C3CDDD"/>
</svg>