<svg width="64" height="64" viewBox="0 0 64 64" fill="none" xmlns="http://www.w3.org/2000/svg">
<path d="M24 1.10929C24.3905 1.58374 24.6297 2.16438 24.6867 2.77618C24.7437 3.38798 24.616 4.00283 24.32 4.54129C22.0074 8.78719 20.7997 13.5465 20.808 18.3813C20.808 34.4653 33.92 47.4893 50.08 47.4893C52.188 47.4893 54.24 47.2693 56.212 46.8493C56.8165 46.7184 57.4462 46.7684 58.0224 46.9932C58.5986 47.218 59.0958 47.6076 59.452 48.1133C59.828 48.6391 60.0196 49.2744 59.9972 49.9204C59.9748 50.5664 59.7395 51.1868 59.328 51.6853C56.1907 55.539 52.233 58.6441 47.7433 60.774C43.2537 62.904 38.3453 64.0052 33.376 63.9973C14.936 63.9973 0 49.1413 0 30.8373C0 17.0613 8.456 5.24529 20.496 0.237288C21.0958 -0.0161848 21.7616 -0.0682089 22.3934 0.0890304C23.0252 0.24627 23.589 0.604282 24 1.10929Z" fill="#C3CDDD"/>
<path d="M43.176 12.5893C43.2333 12.4161 43.3438 12.2653 43.4917 12.1585C43.6397 12.0517 43.8175 11.9942 44 11.9942C44.1824 11.9942 44.3603 12.0517 44.5082 12.1585C44.6561 12.2653 44.7666 12.4161 44.824 12.5893L46.372 17.2373C47.064 19.3093 48.688 20.9333 50.76 21.6253L55.408 23.1733C55.5812 23.2307 55.7319 23.3412 55.8388 23.4891C55.9456 23.637 56.0031 23.8148 56.0031 23.9973C56.0031 24.1798 55.9456 24.3576 55.8388 24.5055C55.7319 24.6535 55.5812 24.7639 55.408 24.8213L50.76 26.3693C49.7381 26.7098 48.8095 27.2836 48.0479 28.0452C47.2862 28.8068 46.7124 29.7354 46.372 30.7573L44.824 35.4053C44.7666 35.5785 44.6561 35.7293 44.5082 35.8361C44.3603 35.9429 44.1824 36.0005 44 36.0005C43.8175 36.0005 43.6397 35.9429 43.4917 35.8361C43.3438 35.7293 43.2333 35.5785 43.176 35.4053L41.628 30.7573C41.2875 29.7354 40.7137 28.8068 39.9521 28.0452C39.1904 27.2836 38.2619 26.7098 37.24 26.3693L32.592 24.8213C32.4188 24.7639 32.268 24.6535 32.1612 24.5055C32.0543 24.3576 31.9968 24.1798 31.9968 23.9973C31.9968 23.8148 32.0543 23.637 32.1612 23.4891C32.268 23.3412 32.4188 23.2307 32.592 23.1733L37.24 21.6253C38.2619 21.2848 39.1904 20.7111 39.9521 19.9494C40.7137 19.1878 41.2875 18.2592 41.628 17.2373L43.176 12.5893ZM55.452 0.393306C55.4915 0.279412 55.5655 0.18065 55.6637 0.110753C55.7619 0.0408555 55.8794 0.0032959 56 0.0032959C56.1205 0.0032959 56.2381 0.0408555 56.3363 0.110753C56.4345 0.18065 56.5085 0.279412 56.548 0.393306L57.58 3.48931C58.04 4.87331 59.124 5.95731 60.508 6.41731L63.604 7.44931C63.7179 7.48879 63.8166 7.56279 63.8865 7.661C63.9564 7.75921 63.994 7.87676 63.994 7.99731C63.994 8.11785 63.9564 8.2354 63.8865 8.33361C63.8166 8.43183 63.7179 8.50582 63.604 8.54531L60.508 9.57731C59.8259 9.8042 59.2062 10.187 58.6979 10.6952C58.1896 11.2035 57.8069 11.8233 57.58 12.5053L56.548 15.6013C56.5085 15.7152 56.4345 15.814 56.3363 15.8839C56.2381 15.9538 56.1205 15.9913 56 15.9913C55.8794 15.9913 55.7619 15.9538 55.6637 15.8839C55.5655 15.814 55.4915 15.7152 55.452 15.6013L54.42 12.5053C54.1931 11.8233 53.8103 11.2035 53.302 10.6952C52.7938 10.187 52.174 9.8042 51.492 9.57731L48.396 8.54531C48.2821 8.50582 48.1833 8.43183 48.1134 8.33361C48.0435 8.2354 48.006 8.11785 48.006 7.99731C48.006 7.87676 48.0435 7.75921 48.1134 7.661C48.1833 7.56279 48.2821 7.48879 48.396 7.44931L51.492 6.41731C52.876 5.95731 53.96 4.87331 54.42 3.48931L55.452 0.397306V0.393306Z" fill="#0B3D91"/>
</svg>