<svg width="60" height="60" viewBox="0 0 60 60" fill="none" xmlns="http://www.w3.org/2000/svg">
<path d="M11.4365 29.2438C11.1713 28.7845 10.7347 28.4494 10.2225 28.312C9.71032 28.1747 9.16456 28.2463 8.70521 28.5113L2.49146 32.095C1.90977 32.4284 1.40164 32.8762 0.997752 33.4114C0.59386 33.9465 0.30257 34.558 0.141458 35.2088C-0.168568 36.4992 0.0353885 37.8597 0.710208 39.0025L1.25521 39.945C1.91868 41.0923 3.01049 41.9292 4.29071 42.2719C5.57094 42.6146 6.93484 42.4349 8.08271 41.7725L14.2915 38.1938C14.5191 38.0626 14.7187 37.8878 14.8788 37.6795C15.0389 37.4712 15.1564 37.2333 15.2245 36.9796C15.2926 36.7258 15.3101 36.4611 15.2759 36.2006C15.2417 35.9401 15.1565 35.6888 15.0252 35.4613L11.4365 29.2438Z" fill="#C3CDDD"/>
<path d="M45.8464 53.0938L34.0814 29.7438C34.0528 29.6868 34.0471 29.6209 34.0655 29.5598C34.0838 29.4987 34.1249 29.4469 34.1802 29.415L35.2177 28.8163C35.4452 28.685 35.6447 28.5102 35.8047 28.3018C35.9646 28.0934 36.082 27.8555 36.15 27.6018C36.218 27.348 36.2354 27.0834 36.2011 26.8229C36.1668 26.5625 36.0816 26.3113 35.9502 26.0838L30.0089 15.7925C29.8778 15.5649 29.703 15.3653 29.4947 15.2052C29.2863 15.0451 29.0485 14.9276 28.7947 14.8595C28.541 14.7914 28.2763 14.7739 28.0157 14.8081C27.7552 14.8423 27.504 14.9275 27.2764 15.0588L16.4789 21.2838C15.9089 21.6104 15.4094 22.0468 15.0092 22.5677C14.6091 23.0887 14.3162 23.6839 14.1477 24.3188C14.033 24.7153 13.9754 25.1261 13.9764 25.5388C13.9839 26.4888 15.1264 28.3763 16.2414 30.3238C17.4402 32.4175 18.6464 34.5588 19.5339 35.0925C20.0989 35.4325 21.0964 35.705 21.9352 35.705H22.0402L12.1252 57.155C12.0147 57.3935 11.9523 57.6514 11.9416 57.914C11.9309 58.1766 11.972 58.4388 12.0627 58.6855C12.1533 58.9321 12.2917 59.1586 12.4699 59.3517C12.6481 59.5449 12.8626 59.7011 13.1012 59.8113C13.3398 59.9215 13.5978 59.9836 13.8604 59.9941C14.123 60.0045 14.3851 59.9631 14.6317 59.8722C14.8783 59.7813 15.1045 59.6427 15.2975 59.4643C15.4905 59.2859 15.6465 59.0712 15.7564 58.8325L27.4664 33.5013C27.5526 33.3138 27.695 33.1578 27.8739 33.055L30.2752 31.67C30.3047 31.6532 30.3373 31.6425 30.3711 31.6387C30.4048 31.6349 30.439 31.638 30.4715 31.6478C30.504 31.6576 30.5342 31.674 30.5602 31.6959C30.5862 31.7177 30.6075 31.7447 30.6227 31.775L42.2739 54.9C42.3921 55.1346 42.5554 55.3436 42.7543 55.5151C42.9533 55.6866 43.1841 55.8172 43.4335 55.8995C43.683 55.9818 43.9462 56.0142 44.2081 55.9947C44.4701 55.9753 44.7256 55.9045 44.9602 55.7863C45.1948 55.6681 45.4038 55.5049 45.5752 55.3059C45.7467 55.1069 45.8774 54.8762 45.9597 54.6267C46.042 54.3773 46.0743 54.1141 46.0549 53.8521C46.0355 53.5902 45.9646 53.3346 45.8464 53.1V53.0938ZM59.2677 12.4613L53.5027 2.4938C52.8373 1.34822 51.7453 0.512808 50.4656 0.170324C49.1858 -0.17216 47.8225 0.00617111 46.6739 0.666302L35.0064 7.3888C34.4363 7.71514 33.9366 8.15147 33.5364 8.67247C33.1362 9.19347 32.8435 9.78876 32.6752 10.4238C32.5095 10.9592 32.4555 11.5229 32.5164 12.0801C32.7339 13.6575 34.1414 15.8801 35.8177 18.8163C37.5152 21.7825 39.4314 25.1263 40.4339 25.85C41.2814 26.4491 42.2936 26.771 43.3314 26.7713C44.2057 26.7716 45.0646 26.5414 45.8214 26.1038L57.4914 19.3776C58.0719 19.0449 58.5792 18.5984 58.9829 18.0649C59.3865 17.5313 59.6781 16.9217 59.8402 16.2725C60.1525 14.976 59.9471 13.6088 59.2677 12.4613Z" fill="#0B3D91"/>
</svg>